<svg xmlns="http://www.w3.org/2000/svg" xmlns:xlink="http://www.w3.org/1999/xlink" width="500" zoomAndPan="magnify" viewBox="0 0 375 374.999991" height="500" preserveAspectRatio="xMidYMid meet" version="1.0"><defs><g/><clipPath id="id1"><path d="M 3.378906 8 L 372.398438 8 L 372.398438 250 L 3.378906 250 Z M 3.378906 8 " clip-rule="nonzero"/></clipPath><clipPath id="id2"><path d="M 7.425781 11 L 366.359375 11 L 366.359375 247 L 7.425781 247 Z M 7.425781 11 " clip-rule="nonzero"/></clipPath></defs><g fill="rgb(32.939148%, 32.939148%, 32.939148%)" fill-opacity="1"><g transform="translate(0.0000045, 363.362223)"><g><path d="M 64.8125 -87.859375 L 83.640625 -87.859375 L 83.640625 0 L 64.8125 0 L 64.8125 -37.796875 L 24.53125 -37.796875 L 24.53125 0 L 5.828125 0 L 5.828125 -87.859375 L 24.53125 -87.859375 L 24.53125 -54.890625 L 64.8125 -54.890625 Z M 64.8125 -87.859375 "/></g></g></g><g fill="rgb(32.939148%, 32.939148%, 32.939148%)" fill-opacity="1"><g transform="translate(89.471871, 363.362223)"><g><path d="M 5.953125 -87.859375 L 60.84375 -87.859375 L 60.84375 -70.765625 L 24.78125 -70.765625 L 24.78125 -54.890625 L 56.515625 -54.890625 L 56.515625 -37.796875 L 24.78125 -37.796875 L 24.78125 -16.984375 L 60.84375 -16.984375 L 60.84375 0 L 5.953125 0 Z M 5.953125 -87.859375 "/></g></g></g><g fill="rgb(32.939148%, 32.939148%, 32.939148%)" fill-opacity="1"><g transform="translate(156.265961, 363.362223)"><g><path d="M 24.65625 -16.984375 L 60.71875 -16.984375 L 60.71875 0 L 5.828125 0 L 5.828125 -87.859375 L 24.65625 -87.859375 Z M 24.65625 -16.984375 "/></g></g></g><g fill="rgb(32.939148%, 32.939148%, 32.939148%)" fill-opacity="1"><g transform="translate(218.227077, 363.362223)"><g><path d="M 24.65625 -16.984375 L 60.71875 -16.984375 L 60.71875 0 L 5.828125 0 L 5.828125 -87.859375 L 24.65625 -87.859375 Z M 24.65625 -16.984375 "/></g></g></g><g fill="rgb(32.939148%, 32.939148%, 32.939148%)" fill-opacity="1"><g transform="translate(280.188193, 363.362223)"><g><path d="M 47.34375 -89.09375 C 53.289062 -89.09375 58.90625 -87.894531 64.1875 -85.5 C 69.476562 -83.101562 74.082031 -79.835938 78 -75.703125 C 81.925781 -71.578125 85.023438 -66.785156 87.296875 -61.328125 C 89.566406 -55.878906 90.703125 -50.0625 90.703125 -43.875 C 90.703125 -37.757812 89.566406 -31.929688 87.296875 -26.390625 C 85.023438 -20.859375 81.925781 -16.023438 78 -11.890625 C 74.082031 -7.765625 69.476562 -4.484375 64.1875 -2.046875 C 58.90625 0.390625 53.289062 1.609375 47.34375 1.609375 C 41.394531 1.609375 35.773438 0.390625 30.484375 -2.046875 C 25.191406 -4.484375 20.601562 -7.765625 16.71875 -11.890625 C 12.84375 -16.023438 9.769531 -20.859375 7.5 -26.390625 C 5.226562 -31.929688 4.09375 -37.757812 4.09375 -43.875 C 4.09375 -50.0625 5.226562 -55.878906 7.5 -61.328125 C 9.769531 -66.785156 12.84375 -71.578125 16.71875 -75.703125 C 20.601562 -79.835938 25.191406 -83.101562 30.484375 -85.5 C 35.773438 -87.894531 41.394531 -89.09375 47.34375 -89.09375 Z M 47.34375 -17.09375 C 50.726562 -17.09375 53.90625 -17.796875 56.875 -19.203125 C 59.851562 -20.609375 62.457031 -22.53125 64.6875 -24.96875 C 66.914062 -27.40625 68.671875 -30.234375 69.953125 -33.453125 C 71.234375 -36.679688 71.875 -40.15625 71.875 -43.875 C 71.875 -47.582031 71.234375 -51.066406 69.953125 -54.328125 C 68.671875 -57.597656 66.914062 -60.453125 64.6875 -62.890625 C 62.457031 -65.328125 59.851562 -67.25 56.875 -68.65625 C 53.90625 -70.0625 50.726562 -70.765625 47.34375 -70.765625 C 43.945312 -70.765625 40.757812 -70.0625 37.78125 -68.65625 C 34.8125 -67.25 32.210938 -65.328125 29.984375 -62.890625 C 27.753906 -60.453125 26 -57.597656 24.71875 -54.328125 C 23.4375 -51.066406 22.796875 -47.582031 22.796875 -43.875 C 22.796875 -40.15625 23.4375 -36.679688 24.71875 -33.453125 C 26 -30.234375 27.753906 -27.40625 29.984375 -24.96875 C 32.210938 -22.53125 34.8125 -20.609375 37.78125 -19.203125 C 40.757812 -17.796875 43.945312 -17.09375 47.34375 -17.09375 Z M 47.34375 -17.09375 "/></g></g></g><g clip-path="url(#id1)"><path fill="rgb(95.689392%, 37.649536%, 1.959229%)" d="M 59.007812 200.859375 C 58.902344 195.601562 58.769531 189.058594 58.421875 187.632812 L 58.261719 187.078125 L 58.234375 186.53125 C 58.101562 184.109375 58.941406 181.816406 60.597656 180.070312 C 61.644531 178.96875 62.953125 178.164062 64.382812 177.722656 C 55.476562 165.160156 50.242188 149.832031 50.242188 133.285156 C 50.242188 90.703125 84.890625 56.183594 127.625 56.183594 C 165.582031 56.183594 197.148438 83.410156 203.738281 119.332031 C 213.339844 100.300781 223.328125 80.195312 231.441406 63.824219 C 209.21875 30.230469 171.023438 8.058594 127.625 8.058594 C 59.003906 8.058594 3.375 63.488281 3.375 131.859375 C 3.375 176.34375 26.921875 215.34375 62.273438 237.167969 C 59.949219 230.207031 59.367188 218.402344 59.007812 200.859375 Z M 372.40625 249.699219 L 320.796875 249.699219 C 316.613281 240.035156 304.589844 212.359375 301.265625 202.816406 L 350.566406 202.816406 L 372.40625 249.699219 " fill-opacity="1" fill-rule="nonzero"/></g><path fill="rgb(32.939148%, 32.939148%, 32.939148%)" d="M 63.371094 186.246094 C 65.035156 192.011719 62.566406 237.355469 70.070312 239.714844 C 98.070312 257.714844 135.371094 261.933594 166.792969 250.773438 C 225.992188 229.851562 238.917969 159.089844 263.410156 109.195312 L 285.3125 162.550781 L 331.808594 162.550781 L 262.371094 13.492188 C 259.546875 17.296875 178.808594 184.804688 172.652344 187.28125 C 154.125 208.757812 121.125 210.867188 95.316406 199.179688 C 86.601562 195.390625 77.902344 190.078125 69.21875 183.230469 C 66.777344 181.304688 63.199219 183.152344 63.371094 186.246094 " fill-opacity="1" fill-rule="nonzero"/><g clip-path="url(#id2)"><path fill="rgb(32.939148%, 32.939148%, 32.939148%)" d="M 61.535156 199.222656 C 61.429688 194.089844 61.300781 187.699219 60.960938 186.308594 L 60.804688 185.765625 L 60.78125 185.234375 C 60.652344 182.871094 61.46875 180.632812 63.082031 178.925781 C 64.097656 177.851562 65.371094 177.066406 66.761719 176.636719 C 58.097656 164.371094 53.007812 149.410156 53.007812 133.253906 C 53.007812 91.683594 86.707031 57.984375 128.277344 57.984375 C 165.195312 57.984375 195.898438 84.566406 202.3125 119.628906 C 211.648438 101.050781 221.363281 81.425781 229.253906 65.441406 C 207.640625 32.648438 170.488281 11 128.277344 11 C 61.527344 11 7.417969 65.113281 7.417969 131.863281 C 7.417969 175.289062 30.324219 213.359375 64.710938 234.667969 C 62.449219 227.875 61.882812 216.347656 61.535156 199.222656 Z M 366.367188 246.902344 L 316.171875 246.902344 C 312.097656 237.46875 300.40625 210.449219 297.171875 201.132812 L 345.125 201.132812 L 366.367188 246.902344 " fill-opacity="1" fill-rule="nonzero"/></g><path fill="rgb(95.689392%, 37.649536%, 1.959229%)" d="M 65.777344 184.957031 C 67.394531 190.585938 64.996094 234.851562 72.292969 237.15625 C 99.53125 254.726562 135.8125 258.847656 166.375 247.949219 C 223.953125 227.527344 236.527344 158.445312 260.351562 109.738281 L 281.65625 161.824219 L 326.882812 161.824219 L 259.339844 16.304688 C 256.589844 20.019531 178.058594 183.546875 172.070312 185.96875 C 154.050781 206.933594 121.953125 208.992188 96.851562 197.582031 C 88.375 193.882812 79.910156 188.695312 71.464844 182.011719 C 69.089844 180.132812 65.609375 181.933594 65.777344 184.957031 " fill-opacity="1" fill-rule="nonzero"/><g fill="rgb(32.939148%, 32.939148%, 32.939148%)" fill-opacity="1"><g transform="translate(64.131118, 246.384183)"><g><path d="M 65.445312 -75.761719 L 66.214844 -73.910156 C 91.3125 -84.21875 112.289062 -34.898438 130.019531 -18.398438 C 142.097656 -6.777344 159.832031 1.035156 178.089844 -10.042969 L 177.515625 -12.121094 C 152.191406 -2.007812 131.019531 -51.097656 113.90625 -67.859375 C 101.632812 -79.25 83.671875 -87.261719 65.445312 -75.761719 Z M 65.445312 -75.761719 "/></g></g></g></svg>