<svg xmlns="http://www.w3.org/2000/svg" xmlns:xlink="http://www.w3.org/1999/xlink" width="512" zoomAndPan="magnify" viewBox="0 0 384 95.999999" height="128" preserveAspectRatio="xMidYMid meet" version="1.0"><defs><g/><clipPath id="id1"><path d="M 1.851562 1.296875 L 139.101562 1.296875 L 139.101562 92 L 1.851562 92 Z M 1.851562 1.296875 " clip-rule="nonzero"/></clipPath><clipPath id="id2"><path d="M 3.355469 2.394531 L 136.855469 2.394531 L 136.855469 91 L 3.355469 91 Z M 3.355469 2.394531 " clip-rule="nonzero"/></clipPath></defs><g clip-path="url(#id1)"><path fill="rgb(95.689392%, 37.649536%, 1.959229%)" d="M 22.539062 73.042969 C 22.5 71.089844 22.449219 68.65625 22.320312 68.125 L 22.261719 67.917969 L 22.253906 67.714844 C 22.203125 66.8125 22.515625 65.960938 23.132812 65.3125 C 23.519531 64.902344 24.007812 64.601562 24.539062 64.4375 C 21.226562 59.765625 19.28125 54.066406 19.28125 47.910156 C 19.28125 32.074219 32.167969 19.234375 48.0625 19.234375 C 62.179688 19.234375 73.917969 29.359375 76.371094 42.722656 C 79.941406 35.640625 83.65625 28.164062 86.671875 22.074219 C 78.410156 9.582031 64.203125 1.335938 48.0625 1.335938 C 22.539062 1.335938 1.847656 21.949219 1.847656 47.382812 C 1.847656 63.925781 10.605469 78.429688 23.753906 86.546875 C 22.890625 83.960938 22.675781 79.570312 22.539062 73.042969 Z M 139.101562 91.207031 L 119.910156 91.207031 C 118.351562 87.617188 113.878906 77.320312 112.644531 73.769531 L 130.980469 73.769531 L 139.101562 91.207031 " fill-opacity="1" fill-rule="nonzero"/></g><path fill="rgb(32.939148%, 32.939148%, 32.939148%)" d="M 24.164062 67.609375 C 24.78125 69.753906 23.863281 86.617188 26.652344 87.496094 C 37.070312 94.191406 50.941406 95.757812 62.628906 91.609375 C 84.648438 83.828125 89.453125 57.507812 98.5625 38.953125 L 106.710938 58.796875 L 124.003906 58.796875 L 98.179688 3.355469 C 97.125 4.769531 67.097656 67.070312 64.808594 67.992188 C 57.917969 75.980469 45.644531 76.765625 36.042969 72.417969 C 32.804688 71.011719 29.566406 69.035156 26.335938 66.488281 C 25.429688 65.769531 24.097656 66.457031 24.164062 67.609375 " fill-opacity="1" fill-rule="nonzero"/><g clip-path="url(#id2)"><path fill="rgb(32.939148%, 32.939148%, 32.939148%)" d="M 23.480469 72.4375 C 23.441406 70.527344 23.390625 68.148438 23.265625 67.632812 L 23.207031 67.429688 L 23.199219 67.234375 C 23.152344 66.351562 23.453125 65.519531 24.054688 64.886719 C 24.433594 64.488281 24.90625 64.195312 25.421875 64.035156 C 22.203125 59.472656 20.308594 53.90625 20.308594 47.898438 C 20.308594 32.4375 32.84375 19.902344 48.304688 19.902344 C 62.035156 19.902344 73.453125 29.789062 75.839844 42.832031 C 79.3125 35.921875 82.925781 28.621094 85.859375 22.675781 C 77.820312 10.480469 64.003906 2.429688 48.304688 2.429688 C 23.476562 2.429688 3.351562 22.554688 3.351562 47.382812 C 3.351562 63.535156 11.871094 77.695312 24.660156 85.617188 C 23.820312 83.089844 23.609375 78.804688 23.480469 72.4375 Z M 136.859375 90.167969 L 118.1875 90.167969 C 116.671875 86.660156 112.324219 76.609375 111.121094 73.144531 L 128.957031 73.144531 L 136.859375 90.167969 " fill-opacity="1" fill-rule="nonzero"/></g><path fill="rgb(95.689392%, 37.649536%, 1.959229%)" d="M 25.058594 67.128906 C 25.660156 69.222656 24.765625 85.6875 27.480469 86.542969 C 37.609375 93.078125 51.105469 94.609375 62.472656 90.558594 C 83.890625 82.960938 88.566406 57.269531 97.425781 39.152344 L 105.351562 58.527344 L 122.171875 58.527344 L 97.050781 4.402344 C 96.027344 5.785156 66.820312 66.605469 64.59375 67.503906 C 57.890625 75.304688 45.949219 76.070312 36.613281 71.824219 C 33.460938 70.449219 30.316406 68.519531 27.171875 66.035156 C 26.289062 65.335938 24.996094 66.003906 25.058594 67.128906 " fill-opacity="1" fill-rule="nonzero"/><g fill="rgb(32.939148%, 32.939148%, 32.939148%)" fill-opacity="1"><g transform="translate(24.44526, 89.976219)"><g><path d="M 24.339844 -28.175781 L 24.628906 -27.488281 C 33.960938 -31.324219 41.765625 -12.980469 48.359375 -6.84375 C 52.851562 -2.519531 59.445312 0.386719 66.238281 -3.734375 L 66.023438 -4.507812 C 56.605469 -0.746094 48.730469 -19.003906 42.367188 -25.238281 C 37.800781 -29.476562 31.121094 -32.457031 24.339844 -28.175781 Z M 24.339844 -28.175781 "/></g></g></g><g fill="rgb(32.939148%, 32.939148%, 32.939148%)" fill-opacity="1"><g transform="translate(133.977313, 91.354498)"><g><path d="M 18.5625 0 L 6.796875 0 L 6.796875 -88.578125 L 18.5625 -88.578125 L 18.5625 -52.78125 C 20.75 -55.207031 23.035156 -56.925781 25.421875 -57.9375 C 27.804688 -58.945312 30.578125 -59.453125 33.734375 -59.453125 C 37.773438 -59.453125 41.394531 -58.660156 44.59375 -57.078125 C 47.789062 -55.503906 50.519531 -53.34375 52.78125 -50.59375 C 55.050781 -47.84375 56.769531 -44.609375 57.9375 -40.890625 C 59.113281 -37.171875 59.703125 -33.207031 59.703125 -29 L 59.703125 0 L 47.8125 0 L 47.8125 -29 C 47.8125 -31.75 47.425781 -34.335938 46.65625 -36.765625 C 45.882812 -39.191406 44.832031 -41.296875 43.5 -43.078125 C 42.164062 -44.859375 40.628906 -46.253906 38.890625 -47.265625 C 37.148438 -48.273438 35.269531 -48.78125 33.25 -48.78125 C 31.550781 -48.78125 29.851562 -48.4375 28.15625 -47.75 C 26.457031 -47.0625 24.898438 -45.945312 23.484375 -44.40625 C 22.066406 -42.875 20.890625 -40.851562 19.953125 -38.34375 C 19.023438 -35.832031 18.5625 -32.800781 18.5625 -29.25 Z M 18.5625 0 "/></g></g></g><g fill="rgb(32.939148%, 32.939148%, 32.939148%)" fill-opacity="1"><g transform="translate(193.78981, 91.354498)"><g/></g></g><g fill="rgb(32.939148%, 32.939148%, 32.939148%)" fill-opacity="1"><g transform="translate(219.512431, 91.354498)"><g/></g></g><g fill="rgb(32.939148%, 32.939148%, 32.939148%)" fill-opacity="1"><g transform="translate(245.223401, 91.354498)"><g><path d="M 19.171875 -88.578125 L 19.171875 0 L 7.40625 0 L 7.40625 -88.578125 Z M 19.171875 -88.578125 "/></g></g></g><g fill="rgb(32.939148%, 32.939148%, 32.939148%)" fill-opacity="1"><g transform="translate(265.000551, 91.354498)"><g><path d="M 19.171875 -88.578125 L 19.171875 0 L 7.40625 0 L 7.40625 -88.578125 Z M 19.171875 -88.578125 "/></g></g></g><g fill="rgb(32.939148%, 32.939148%, 32.939148%)" fill-opacity="1"><g transform="translate(284.777702, 91.354498)"><g><path d="M 32.28125 1.453125 C 28.226562 1.453125 24.441406 0.664062 20.921875 -0.90625 C 17.410156 -2.488281 14.335938 -4.65625 11.703125 -7.40625 C 9.078125 -10.15625 6.992188 -13.390625 5.453125 -17.109375 C 3.921875 -20.828125 3.15625 -24.789062 3.15625 -29 C 3.15625 -33.207031 3.921875 -37.171875 5.453125 -40.890625 C 6.992188 -44.609375 9.078125 -47.84375 11.703125 -50.59375 C 14.335938 -53.34375 17.410156 -55.503906 20.921875 -57.078125 C 24.441406 -58.660156 28.226562 -59.453125 32.28125 -59.453125 C 36.238281 -59.453125 40 -58.660156 43.5625 -57.078125 C 47.125 -55.503906 50.21875 -53.34375 52.84375 -50.59375 C 55.46875 -47.84375 57.550781 -44.609375 59.09375 -40.890625 C 60.632812 -37.171875 61.40625 -33.207031 61.40625 -29 C 61.40625 -24.789062 60.632812 -20.828125 59.09375 -17.109375 C 57.550781 -13.390625 55.46875 -10.15625 52.84375 -7.40625 C 50.21875 -4.65625 47.125 -2.488281 43.5625 -0.90625 C 40 0.664062 36.238281 1.453125 32.28125 1.453125 Z M 32.28125 -48.90625 C 29.9375 -48.90625 27.710938 -48.378906 25.609375 -47.328125 C 23.503906 -46.273438 21.660156 -44.859375 20.078125 -43.078125 C 18.503906 -41.296875 17.269531 -39.191406 16.375 -36.765625 C 15.488281 -34.335938 15.046875 -31.75 15.046875 -29 C 15.046875 -26.25 15.488281 -23.660156 16.375 -21.234375 C 17.269531 -18.804688 18.503906 -16.679688 20.078125 -14.859375 C 21.660156 -13.046875 23.503906 -11.613281 25.609375 -10.5625 C 27.710938 -9.507812 29.9375 -8.984375 32.28125 -8.984375 C 34.625 -8.984375 36.847656 -9.507812 38.953125 -10.5625 C 41.054688 -11.613281 42.875 -13.046875 44.40625 -14.859375 C 45.945312 -16.679688 47.160156 -18.804688 48.046875 -21.234375 C 48.941406 -23.660156 49.390625 -26.25 49.390625 -29 C 49.390625 -31.75 48.941406 -34.335938 48.046875 -36.765625 C 47.160156 -39.191406 45.945312 -41.296875 44.40625 -43.078125 C 42.875 -44.859375 41.054688 -46.273438 38.953125 -47.328125 C 36.847656 -48.378906 34.625 -48.90625 32.28125 -48.90625 Z M 32.28125 -48.90625 "/></g></g></g><g fill="rgb(32.939148%, 32.939148%, 32.939148%)" fill-opacity="0.2"><g transform="translate(210.370003, 104.078046)"><g><path d="M 33.34375 -54.171875 C 33.9375 -53.046875 34.03125 -51.851562 33.625 -50.59375 C 33.21875 -49.332031 32.4375 -48.363281 31.28125 -47.6875 L -0.84375 -28.828125 C 2.1875 -24.628906 5.960938 -22.054688 10.484375 -21.109375 C 15.015625 -20.171875 19.410156 -20.953125 23.671875 -23.453125 C 26.585938 -25.160156 28.707031 -26.976562 30.03125 -28.90625 C 31.351562 -30.832031 32.320312 -32.878906 32.9375 -35.046875 C 33.53125 -36.117188 34.25 -36.90625 35.09375 -37.40625 C 36.132812 -38.019531 37.21875 -38.164062 38.34375 -37.84375 C 39.476562 -37.519531 40.328125 -36.875 40.890625 -35.90625 C 41.640625 -34.625 41.710938 -33.113281 41.109375 -31.375 C 40.367188 -28.5625 38.894531 -25.6875 36.6875 -22.75 C 34.488281 -19.820312 31.867188 -17.46875 28.828125 -15.6875 C 23.898438 -12.789062 18.957031 -11.28125 14 -11.15625 C 9.039062 -11.03125 4.453125 -12.222656 0.234375 -14.734375 C -3.972656 -17.253906 -7.453125 -20.863281 -10.203125 -25.5625 C -13.203125 -30.664062 -14.785156 -35.765625 -14.953125 -40.859375 C -15.128906 -45.953125 -14.101562 -50.539062 -11.875 -54.625 C -9.644531 -58.71875 -6.550781 -61.921875 -2.59375 -64.234375 C 1.300781 -66.523438 5.539062 -67.664062 10.125 -67.65625 C 14.707031 -67.644531 19.066406 -66.484375 23.203125 -64.171875 C 27.335938 -61.859375 30.71875 -58.523438 33.34375 -54.171875 Z M 2.109375 -56.203125 C -1.296875 -54.210938 -3.6875 -51.523438 -5.0625 -48.140625 C -6.4375 -44.753906 -6.34375 -40.828125 -4.78125 -36.359375 L 22.140625 -52.15625 L 21.71875 -52.875 C 19.53125 -55.925781 16.535156 -57.726562 12.734375 -58.28125 C 8.929688 -58.832031 5.390625 -58.140625 2.109375 -56.203125 Z M 2.109375 -56.203125 "/></g></g></g><g fill="rgb(100%, 79.998779%, 0%)" fill-opacity="1"><g transform="translate(209.277521, 102.421666)"><g><path d="M 33.34375 -54.171875 C 33.9375 -53.046875 34.03125 -51.851562 33.625 -50.59375 C 33.21875 -49.332031 32.4375 -48.363281 31.28125 -47.6875 L -0.84375 -28.828125 C 2.1875 -24.628906 5.960938 -22.054688 10.484375 -21.109375 C 15.015625 -20.171875 19.410156 -20.953125 23.671875 -23.453125 C 26.585938 -25.160156 28.707031 -26.976562 30.03125 -28.90625 C 31.351562 -30.832031 32.320312 -32.878906 32.9375 -35.046875 C 33.53125 -36.117188 34.25 -36.90625 35.09375 -37.40625 C 36.132812 -38.019531 37.21875 -38.164062 38.34375 -37.84375 C 39.476562 -37.519531 40.328125 -36.875 40.890625 -35.90625 C 41.640625 -34.625 41.710938 -33.113281 41.109375 -31.375 C 40.367188 -28.5625 38.894531 -25.6875 36.6875 -22.75 C 34.488281 -19.820312 31.867188 -17.46875 28.828125 -15.6875 C 23.898438 -12.789062 18.957031 -11.28125 14 -11.15625 C 9.039062 -11.03125 4.453125 -12.222656 0.234375 -14.734375 C -3.972656 -17.253906 -7.453125 -20.863281 -10.203125 -25.5625 C -13.203125 -30.664062 -14.785156 -35.765625 -14.953125 -40.859375 C -15.128906 -45.953125 -14.101562 -50.539062 -11.875 -54.625 C -9.644531 -58.71875 -6.550781 -61.921875 -2.59375 -64.234375 C 1.300781 -66.523438 5.539062 -67.664062 10.125 -67.65625 C 14.707031 -67.644531 19.066406 -66.484375 23.203125 -64.171875 C 27.335938 -61.859375 30.71875 -58.523438 33.34375 -54.171875 Z M 2.109375 -56.203125 C -1.296875 -54.210938 -3.6875 -51.523438 -5.0625 -48.140625 C -6.4375 -44.753906 -6.34375 -40.828125 -4.78125 -36.359375 L 22.140625 -52.15625 L 21.71875 -52.875 C 19.53125 -55.925781 16.535156 -57.726562 12.734375 -58.28125 C 8.929688 -58.832031 5.390625 -58.140625 2.109375 -56.203125 Z M 2.109375 -56.203125 "/></g></g></g></svg>